HIERARCHY
ROOT SimulationBone
{
	OFFSET 0.000000 0.000000 0.000000
	CHANNELS 6 Xposition Yposition Zposition Zrotation Yrotation Xrotation 
	JOINT Hips
	{
		OFFSET 0.000000 0.000000 0.000000
		CHANNELS 6 Xposition Yposition Zposition Zrotation Yrotation Xrotation 
		JOINT LeftUpLeg
		{
			OFFSET 0.103456 1.857829 10.548507
			CHANNELS 3 Zrotation Yrotation Xrotation
			JOINT LeftLeg
			{
				OFFSET 43.500000 -0.000031 0.000008
				CHANNELS 3 Zrotation Yrotation Xrotation
				JOINT LeftFoot
				{
					OFFSET 42.372200 0.000015 -0.000002
					CHANNELS 3 Zrotation Yrotation Xrotation
					JOINT LeftToe
					{
						OFFSET 17.299992 -0.000004 0.000000
						CHANNELS 3 Zrotation Yrotation Xrotation
						End Site
						{
							OFFSET 0.000000 0.000000 0.000000
						}
					}
				}
			}
		}
		JOINT RightUpLeg
		{
			OFFSET 0.103460 1.857824 -10.548508
			CHANNELS 3 Zrotation Yrotation Xrotation
			JOINT RightLeg
			{
				OFFSET 43.500042 -0.000019 0.000004
				CHANNELS 3 Zrotation Yrotation Xrotation
				JOINT RightFoot
				{
					OFFSET 42.372265 -0.000019 0.000016
					CHANNELS 3 Zrotation Yrotation Xrotation
					JOINT RightToe
					{
						OFFSET 17.299999 -0.000001 -0.000006
						CHANNELS 3 Zrotation Yrotation Xrotation
						End Site
						{
							OFFSET 0.000000 0.000000 0.000000
						}
					}
				}
			}
		}
		JOINT Spine
		{
			OFFSET 6.901965 -2.603734 0.000001
			CHANNELS 3 Zrotation Yrotation Xrotation
			JOINT Spine1
			{
				OFFSET 12.588102 0.000006 -0.000006
				CHANNELS 3 Zrotation Yrotation Xrotation
				JOINT Spine2
				{
					OFFSET 12.343201 -0.000002 0.000010
					CHANNELS 3 Zrotation Yrotation Xrotation
					JOINT Neck
					{
						OFFSET 25.832899 -0.000004 -0.000009
						CHANNELS 3 Zrotation Yrotation Xrotation
						JOINT Head
						{
							OFFSET 11.766603 0.000001 0.000007
							CHANNELS 3 Zrotation Yrotation Xrotation
							End Site
							{
								OFFSET 0.000000 0.000000 0.000000
							}
						}
					}
					JOINT LeftShoulder
					{
						OFFSET 19.745899 -1.480371 6.000098
						CHANNELS 3 Zrotation Yrotation Xrotation
						JOINT LeftArm
						{
							OFFSET 11.284129 -0.000011 -0.000015
							CHANNELS 3 Zrotation Yrotation Xrotation
							JOINT LeftForeArm
							{
								OFFSET 33.000046 0.000011 0.000030
								CHANNELS 3 Zrotation Yrotation Xrotation
								JOINT LeftHand
								{
									OFFSET 25.200010 0.000012 -0.000000
									CHANNELS 3 Zrotation Yrotation Xrotation
									End Site
									{
										OFFSET 0.000000 0.000000 0.000000
									}
								}
							}
						}
					}
					JOINT RightShoulder
					{
						OFFSET 19.746092 -1.480375 -6.000075
						CHANNELS 3 Zrotation Yrotation Xrotation
						JOINT RightArm
						{
							OFFSET 11.284135 -0.000010 -0.000014
							CHANNELS 3 Zrotation Yrotation Xrotation
							JOINT RightForeArm
							{
								OFFSET 33.000092 0.000016 0.000013
								CHANNELS 3 Zrotation Yrotation Xrotation
								JOINT RightHand
								{
									OFFSET 25.199780 0.000135 0.000426
									CHANNELS 3 Zrotation Yrotation Xrotation
									End Site
									{
										OFFSET 0.000000 0.000000 0.000000
									}
								}
							}
						}
					}
				}
			}
		}
	}
}
MOTION
Frames: 7
Frame Time: 0.016667
-127.273133 0.000000 -195.560126 0.000000 -85.623416 0.000000 0.663771 90.289749 0.148054 96.104273 -1.295717 179.894117 174.728342 1.452191 179.570919 -26.254063 -1.040665 -4.970257 78.468395 3.318419 -0.870039 21.454553 0.003086 0.000002 176.252444 7.416117 -170.928926 -28.698743 0.009937 8.680369 79.790686 -4.108579 8.535979 21.454558 -0.003110 -0.000017 8.605729 -0.926605 0.711979 7.188283 -1.895547 1.365335 6.870108 -1.887133 1.376765 4.529880 -9.120951 -2.318426 -13.907470 8.652919 -6.534954 -159.312631 -72.503772 -22.689293 8.369469 66.475599 18.597095 -48.854658 -19.518722 2.014680 3.740737 -2.781821 32.159385 -156.289712 72.512262 25.752531 -0.320369 -63.904846 -19.956229 -37.053751 19.855599 -1.725348 4.356347 7.185791 -15.854713 
-127.090651 0.000000 -195.784191 0.000000 -85.532540 0.000000 0.562254 90.093630 0.192806 95.992925 -1.248725 -179.995135 173.785586 1.514209 179.757367 -27.470016 -1.095207 -4.976733 78.857950 3.344104 -0.785360 21.454549 0.003101 0.000001 174.889695 7.542929 -171.073173 -30.707334 -0.171189 8.783663 79.613239 -4.110237 8.758749 21.454555 -0.003106 -0.000017 8.682056 -0.953843 0.773750 7.339633 -1.954746 1.485755 7.021476 -1.945616 1.497564 5.012743 -9.302992 -2.097187 -14.052271 8.489412 -6.251153 -158.921861 -72.496941 -23.090837 8.139750 66.332398 20.084002 -46.594996 -19.595954 1.954989 4.256997 -3.379747 30.846646 -156.387094 72.574515 25.651242 1.252777 -64.208200 -21.962660 -36.337823 19.646317 -1.694280 4.436157 7.301251 -15.993016 
-126.920509 0.000000 -196.014978 0.000000 -85.403577 0.000000 0.451635 89.882149 0.229519 95.882069 -1.198555 -179.928461 172.821900 1.506602 179.880873 -28.708018 -1.261558 -4.928531 79.265922 3.351189 -0.624551 21.454548 0.003097 0.000000 173.411167 7.720699 -171.246216 -32.895915 -0.284354 8.876997 79.292498 -4.106014 8.941127 21.454558 -0.003101 -0.000018 8.767538 -0.985453 0.813842 7.509596 -2.021561 1.562348 7.191426 -2.011961 1.574550 5.266501 -9.432577 -1.809769 -13.954590 8.229126 -5.854811 -158.271014 -72.460182 -23.760080 7.225677 66.000859 20.754500 -44.046106 -19.265312 1.849580 4.961637 -3.564483 29.780778 -156.502499 72.666310 25.530856 2.500635 -64.342989 -23.813768 -35.637918 19.342990 -1.657449 4.633322 7.160526 -15.879596 
-126.762952 0.000000 -196.253014 0.000000 -85.238025 0.000000 0.327933 89.646526 0.263653 95.758701 -1.164812 -179.902486 171.813175 1.456894 179.904271 -29.984821 -1.494128 -4.809222 79.693712 3.324548 -0.399914 21.454549 0.003085 -0.000001 171.792034 7.953859 -171.452427 -35.267898 -0.343045 8.968004 78.848638 -4.110222 9.049546 21.454561 -0.003098 -0.000018 8.854114 -1.026065 0.832377 7.682019 -2.105056 1.595161 7.363819 -2.095244 1.607846 5.420666 -9.504593 -1.472554 -13.745315 7.878796 -5.368395 -157.618547 -72.456266 -24.430411 5.935750 65.543933 21.038490 -41.290266 -18.683979 1.729698 5.844083 -3.393044 28.810770 -156.723744 72.789326 25.301228 3.466697 -64.335216 -25.556157 -34.922391 18.983418 -1.617191 4.828345 6.796351 -15.569831 
-126.618225 0.000000 -196.498828 0.000000 -85.037326 0.000000 0.187119 89.377983 0.300586 95.609966 -1.167173 -179.913820 170.735536 1.391103 179.789553 -31.317441 -1.746514 -4.604093 80.142509 3.249161 -0.124008 21.454551 0.003076 -0.000001 170.006878 8.246303 -171.697118 -37.827438 -0.360041 9.064890 78.301779 -4.138184 9.050690 21.454562 -0.003101 -0.000018 8.933730 -1.080301 0.829472 7.840772 -2.214260 1.584228 7.522536 -2.204505 1.597562 5.605129 -9.514912 -1.102685 -13.555263 7.446671 -4.813454 -157.213933 -72.551215 -24.844196 4.565425 65.024908 21.352787 -38.403820 -18.010358 1.612535 6.897852 -2.919200 27.786926 -157.142119 72.944702 24.868734 4.205928 -64.207369 -27.248144 -34.159305 18.605382 -1.575246 4.900279 6.242608 -15.118024 
-126.486571 0.000000 -196.752947 0.000000 -84.802880 0.000000 0.028696 89.075931 0.344420 95.431763 -1.216960 -179.956511 169.590197 1.326303 179.510154 -32.694269 -1.976389 -4.303932 80.602189 3.114003 0.191933 21.454553 0.003077 -0.000000 168.064501 8.591231 -171.963593 -40.539793 -0.354459 9.174329 77.673511 -4.206758 8.907523 21.454558 -0.003110 -0.000017 9.001975 -1.151378 0.806028 7.977040 -2.355514 1.531180 7.658771 -2.346082 1.545382 5.901324 -9.465295 -0.712190 -13.468421 6.952859 -4.208678 -157.230879 -72.790918 -24.822148 3.335501 64.502847 21.957665 -35.492214 -17.367491 1.500950 8.111752 -2.168029 26.676557 -157.780975 73.121306 24.209812 4.752227 -63.978182 -28.905757 -33.354279 18.233591 -1.533120 4.790859 5.493666 -14.601044 
-126.368235 0.000000 -197.015901 0.000000 -84.536044 0.000000 -0.133480 88.772552 0.394545 95.254123 -1.291468 179.985342 168.478405 1.250900 179.088325 -33.988878 -2.161524 -3.916101 81.018187 2.923919 0.543104 21.454555 0.003085 0.000001 166.113752 8.944908 -172.141449 -43.212031 -0.374048 9.296285 76.991278 -4.335625 8.567076 21.454555 -0.003117 -0.000016 9.068965 -1.236887 0.766058 8.111117 -2.524357 1.443965 7.792804 -2.515457 1.459207 6.196077 -9.375550 -0.292124 -13.382311 6.455933 -3.568189 -157.537901 -73.132990 -24.500501 2.273250 63.998160 22.591683 -32.802785 -16.735806 1.398383 9.460295 -1.076086 25.913704 -158.366882 73.264095 23.606117 5.034252 -63.662579 -30.354145 -32.663951 17.840717 -1.492803 4.692975 4.375622 -14.197786 
